<svg xmlns="http://www.w3.org/2000/svg" width="720" height="430" viewBox="0 0 720 430"><defs><linearGradient id="bg" x2="1" y2="1"><stop stop-color="#096779"/><stop offset="1" stop-color="#092c57"/></linearGradient><linearGradient id="pink" x2="1" y2="1"><stop stop-color="#ffccd8"/><stop offset="1" stop-color="#e2609c"/></linearGradient><linearGradient id="blue" x2="1" y2="1"><stop stop-color="#35d9e3"/><stop offset="1" stop-color="#067baf"/></linearGradient><filter id="s"><feDropShadow dx="14" dy="18" stdDeviation="10" flood-color="#03182d" flood-opacity=".5"/></filter></defs><path fill="url(#bg)" d="M0 0h720v430H0z"/><g filter="url(#s)"><path fill="url(#blue)" d="M-70 60 80-50 320 190 175 340z"/><path fill="url(#pink)" d="M110-80 245-40 515 230 425 320z"/><path fill="#ab447a" d="m425 320 90-90 0 35-90 90z"/><path fill="url(#blue)" d="m355-100 120 80 260 260-120 100z"/><path fill="url(#pink)" d="m610-80 105 45-230 240-95-50z"/><path fill="url(#blue)" d="m50 400 250-230 80 85L170 505z"/><path fill="url(#pink)" d="m350 290 75-75 270 270-130 40z"/><path fill="#58d5e4" d="m230 0 80 140 50-40z"/><path fill="#f7bccb" d="m175 340 100-45-85-85z"/></g></svg>
